<?xml version="1.0" ?><!DOCTYPE svg  PUBLIC '-//W3C//DTD SVG 1.1//EN'  'http://www.w3.org/Graphics/SVG/1.1/DTD/svg11.dtd'><svg enable-background="new 0 0 91 91" height="91px" id="Layer_1" version="1.1" viewBox="0 0 91 91" width="91px" xml:space="preserve" xmlns="http://www.w3.org/2000/svg" xmlns:xlink="http://www.w3.org/1999/xlink"><g><path d="M24.622,50.879c0.615,0.04,29.145-0.017,42.784,0.04c0.775,0.004,1.341-0.318,1.709-0.786   c3.318-1.313,5.798-4.231,5.959-8.19c0.219-5.337-3.515-9.095-8.261-10.347c-0.35-0.281-0.812-0.456-1.389-0.449   c-12.233,0.144-24.792-0.369-37.021,0.827c-0.968-0.357-1.993-0.607-3.046-0.736c-1.585-0.195-2.621,0.7-3.076,1.906   c-3.02,0.711-5.759,4.882-6.086,7.429C15.531,45.717,19.444,50.542,24.622,50.879z M69.623,41.942   c-0.224,2.986-3.866,4.174-6.39,3.313c-2.371-0.808-3.334-3.703-2.278-5.873c0.415-0.853,1.043-1.481,1.711-2.061   c0.549,0.544,1.318,0.883,2.32,0.851C67.228,38.099,69.821,39.324,69.623,41.942z M58.242,35.691   c-1.307,1.546-2.238,3.465-2.42,4.882c-0.272,2.111,0.237,4.164,1.277,5.88c-7.899,0.099-15.851,0.283-23.713,0.903   c1.207-1.442,1.972-3.276,2.059-5.414c0.107-2.634-0.748-4.884-2.211-6.639C41.562,35.581,49.909,35.647,58.242,35.691z    M21.327,39.383c0.417-0.853,1.042-1.481,1.711-2.061c0.548,0.544,1.319,0.883,2.319,0.851c2.24-0.074,4.836,1.152,4.64,3.77   c-0.226,2.986-3.87,4.174-6.392,3.313C21.235,44.448,20.27,41.553,21.327,39.383z"/><path d="M1.735,21.08c-1.4,18.055-0.765,36.378-0.715,54.458c0.004,1.252,1.076,2.378,2.354,2.352   c14.257-0.293,28.579,0.387,42.832,0.686c7.982,0.168,15.97,0.269,23.954,0.357c6.058,0.064,16.05,1.631,17.705-6.176   c0.789-3.721,0.428-7.936,0.563-11.722c0.159-4.512,0.374-9.019,0.57-13.525c0.407-9.258,0.813-18.516,1.213-27.773   c0.059-1.376-1.206-2.51-2.526-2.525c-28.106-0.329-56.196-0.899-84.282-2.056C-0.055,15.012-0.618,19.555,1.735,21.08z    M69.144,73.928c-16.051-0.314-49.852-0.688-50.7-0.7c1.141-1.17,2.289-2.339,3.328-3.605c0.906-1.107,1.876-3.07,3.257-3.633   c1.194-0.487,31.666,0.013,36.76,0.011c1.814,0,3.301-0.359,4.759,1.028c0.951,0.909,1.665,2.484,2.341,3.618   c0.659,1.105,1.304,2.215,1.966,3.313C70.284,73.948,69.714,73.938,69.144,73.928z M85.074,22.262   c-0.492,14.222-0.951,28.446-1.566,42.663c-0.139,3.251,0.859,8.301-3.251,9.007c-1.065,0.183-2.161,0.166-3.247,0.141   c-2.833-4.479-5.476-12.129-10.97-13.149c-3.114-0.582-6.568-0.322-9.732-0.396c-3.113-0.07-6.226-0.07-9.337-0.083   c-6.875-0.026-13.77-0.121-20.646,0.029c-3.709,0.08-5.265,1.041-7.031,4.287c-1.5,2.759-2.694,5.607-3.992,8.429   c-3.194-0.042-6.391-0.07-9.583-0.033C5.665,56.02,6.028,38.683,4.6,21.596C31.427,22.247,58.24,22.284,85.074,22.262z"/></g></svg>