<?xml version="1.0" encoding="iso-8859-1"?>
<!-- Generator: Adobe Illustrator 18.0.0, SVG Export Plug-In . SVG Version: 6.00 Build 0)  -->
<!DOCTYPE svg PUBLIC "-//W3C//DTD SVG 1.1//EN" "http://www.w3.org/Graphics/SVG/1.1/DTD/svg11.dtd">
<svg version="1.1" id="Capa_1" xmlns="http://www.w3.org/2000/svg" xmlns:xlink="http://www.w3.org/1999/xlink" x="0px" y="0px"
	 viewBox="0 0 512 512" style="enable-background:new 0 0 512 512;" xml:space="preserve">
<g>
	<circle cx="256" cy="256" r="32"/>
	<path d="M256,0C114.617,0,0,114.615,0,256s114.617,256,256,256s256-114.615,256-256S397.383,0,256,0z M167.281,443.851
		c-43.422-20.596-78.539-55.708-99.133-99.134l59.492-23.797c13.867,27.305,36.133,49.572,63.438,63.44L167.281,443.851z
		 M325.07,298.277c-5.969,11.35-15.449,20.826-26.797,26.797c-75.438,39.682-151.031-35.92-111.344-111.353
		c5.969-11.35,15.449-20.826,26.797-26.796C289.164,147.243,364.758,222.846,325.07,298.277z M384.359,191.079
		c-13.867-27.305-36.133-49.571-63.438-63.439l23.797-59.491c43.422,20.595,78.535,55.709,99.133,99.134L384.359,191.079z"/>
</g>
<g>
</g>
<g>
</g>
<g>
</g>
<g>
</g>
<g>
</g>
<g>
</g>
<g>
</g>
<g>
</g>
<g>
</g>
<g>
</g>
<g>
</g>
<g>
</g>
<g>
</g>
<g>
</g>
<g>
</g>
</svg>
